<svg width="46" height="41" viewBox="0 0 46 41" fill="none" xmlns="http://www.w3.org/2000/svg">
<path d="M5.5 15.5L9.25 4.25H36.75L40.5 15.5M36.75 28C35.7554 28 34.8016 27.6049 34.0984 26.9017C33.3951 26.1984 33 25.2446 33 24.25C33 23.2554 33.3951 22.3016 34.0984 21.5983C34.8016 20.8951 35.7554 20.5 36.75 20.5C37.7446 20.5 38.6984 20.8951 39.4016 21.5983C40.1049 22.3016 40.5 23.2554 40.5 24.25C40.5 25.2446 40.1049 26.1984 39.4016 26.9017C38.6984 27.6049 37.7446 28 36.75 28ZM9.25 28C8.25544 28 7.30161 27.6049 6.59835 26.9017C5.89509 26.1984 5.5 25.2446 5.5 24.25C5.5 23.2554 5.89509 22.3016 6.59835 21.5983C7.30161 20.8951 8.25544 20.5 9.25 20.5C10.2446 20.5 11.1984 20.8951 11.9017 21.5983C12.6049 22.3016 13 23.2554 13 24.25C13 25.2446 12.6049 26.1984 11.9017 26.9017C11.1984 27.6049 10.2446 28 9.25 28ZM40.3 3C39.8 1.55 38.4 0.5 36.75 0.5H9.25C7.6 0.5 6.2 1.55 5.7 3L0.5 18V38C0.5 38.663 0.763392 39.2989 1.23223 39.7678C1.70107 40.2366 2.33696 40.5 3 40.5H5.5C6.16304 40.5 6.79893 40.2366 7.26777 39.7678C7.73661 39.2989 8 38.663 8 38V35.5H38V38C38 38.663 38.2634 39.2989 38.7322 39.7678C39.2011 40.2366 39.837 40.5 40.5 40.5H43C43.663 40.5 44.2989 40.2366 44.7678 39.7678C45.2366 39.2989 45.5 38.663 45.5 38V18L40.3 3Z" fill="#5FA1C6"/>
</svg>
