<svg width="50" height="28" viewBox="0 0 48 28" fill="none" xmlns="http://www.w3.org/2000/svg">
<path d="M24 0C25.8565 0 27.637 0.712067 28.9497 1.97955C30.2625 3.24704 31 4.96612 31 6.75862C31 8.55112 30.2625 10.2702 28.9497 11.5377C27.637 12.8052 25.8565 13.5172 24 13.5172C22.1435 13.5172 20.363 12.8052 19.0503 11.5377C17.7375 10.2702 17 8.55112 17 6.75862C17 4.96612 17.7375 3.24704 19.0503 1.97955C20.363 0.712067 22.1435 0 24 0ZM10 4.82759C11.12 4.82759 12.16 5.11724 13.06 5.63862C12.76 8.4 13.6 11.1421 15.32 13.2855C14.32 15.1393 12.32 16.4138 10 16.4138C8.4087 16.4138 6.88258 15.8035 5.75736 14.717C4.63214 13.6306 4 12.1571 4 10.6207C4 9.08426 4.63214 7.61076 5.75736 6.52435C6.88258 5.43793 8.4087 4.82759 10 4.82759ZM38 4.82759C39.5913 4.82759 41.1174 5.43793 42.2426 6.52435C43.3679 7.61076 44 9.08426 44 10.6207C44 12.1571 43.3679 13.6306 42.2426 14.717C41.1174 15.8035 39.5913 16.4138 38 16.4138C35.68 16.4138 33.68 15.1393 32.68 13.2855C34.4 11.1421 35.24 8.4 34.94 5.63862C35.84 5.11724 36.88 4.82759 38 4.82759ZM11 24.6207C11 20.6234 16.82 17.3793 24 17.3793C31.18 17.3793 37 20.6234 37 24.6207V28H11V24.6207ZM0 28V25.1034C0 22.4193 3.78 20.16 8.9 19.5034C7.72 20.8166 7 22.6317 7 24.6207V28H0ZM48 28H41V24.6207C41 22.6317 40.28 20.8166 39.1 19.5034C44.22 20.16 48 22.4193 48 25.1034V28Z" fill="#5FA1C6"/>
</svg>
