<svg width="25" height="26" viewBox="0 0 25 26" fill="none" xmlns="http://www.w3.org/2000/svg">
<path d="M12.5 0.786743C5.62499 0.786743 0 6.42316 0 13.3651C0 19.6418 4.57499 24.8514 10.55 25.7929V17.0056H7.37499V13.3651H10.55V10.5908C10.55 7.43998 12.4125 5.70763 15.275 5.70763C16.6375 5.70763 18.0625 5.94614 18.0625 5.94614V9.0468H16.4875C14.9375 9.0468 14.45 10.0134 14.45 11.0051V13.3651H17.925L17.3625 17.0056H14.45V25.7929C17.3955 25.3257 20.0777 23.8164 22.0124 21.5374C23.947 19.2584 25.0067 16.3599 25 13.3651C25 6.42316 19.375 0.786743 12.5 0.786743Z" fill="black"/>
</svg>
