<svg width="26" height="24" viewBox="0 0 26 24" fill="none" xmlns="http://www.w3.org/2000/svg">
<path d="M7.67003 20.3713C6.55892 20.3713 5.44781 19.3991 4.89225 18.9824C2.11447 17.038 1.28114 16.3435 0.725586 15.9269V21.7602C0.725586 22.5271 1.34755 23.1491 2.11447 23.1491H13.2256C13.9925 23.1491 14.6145 22.5271 14.6145 21.7602V15.9269C14.0589 16.3435 13.2256 17.038 10.4478 18.9824C9.89225 19.3991 8.78114 20.3713 7.67003 20.3713ZM13.2256 12.038H2.11447C1.34755 12.038 0.725586 12.66 0.725586 13.4269V14.1213C1.8367 14.9547 1.69781 14.9547 5.72559 17.8713C6.14225 18.1491 6.97559 18.9824 7.67003 18.9824C8.36447 18.9824 9.19781 18.1491 9.61447 18.0102C13.6423 15.0935 13.5034 15.0935 14.6145 14.2602V13.4269C14.6145 12.66 13.9925 12.038 13.2256 12.038ZM24.3367 7.87132H10.4478C9.68088 7.87132 9.05892 8.49329 9.05892 9.26021V10.6491H13.2256C14.667 10.6491 15.8554 11.7524 15.9908 13.1587L16.0034 13.1491V18.9824H24.3367C25.1036 18.9824 25.7256 18.3605 25.7256 17.5935V9.26021C25.7256 8.49329 25.1036 7.87132 24.3367 7.87132ZM22.9478 13.4269H20.17V10.6491H22.9478V13.4269ZM7.67003 9.26021C7.67003 7.72853 8.91612 6.48244 10.4478 6.48244H20.17V2.31577C20.17 1.54884 19.5481 0.92688 18.7811 0.92688H4.89225C4.12533 0.92688 3.50336 1.54884 3.50336 2.31577V10.6491H7.67003V9.26021Z" fill="black"/>
</svg>
