<svg width="50" height="45" viewBox="0 0 65 45" fill="none" xmlns="http://www.w3.org/2000/svg">
<path d="M11.8182 0H65V33.75H11.8182V0ZM38.4091 8.4375C40.7599 8.4375 43.0144 9.32645 44.6766 10.9088C46.3389 12.4911 47.2727 14.6372 47.2727 16.875C47.2727 19.1128 46.3389 21.2589 44.6766 22.8412C43.0144 24.4236 40.7599 25.3125 38.4091 25.3125C36.0583 25.3125 33.8038 24.4236 32.1416 22.8412C30.4793 21.2589 29.5455 19.1128 29.5455 16.875C29.5455 14.6372 30.4793 12.4911 32.1416 10.9088C33.8038 9.32645 36.0583 8.4375 38.4091 8.4375ZM23.6364 5.625C23.6364 7.11684 23.0138 8.54758 21.9056 9.60247C20.7975 10.6574 19.2945 11.25 17.7273 11.25V22.5C19.2945 22.5 20.7975 23.0926 21.9056 24.1475C23.0138 25.2024 23.6364 26.6332 23.6364 28.125H53.1818C53.1818 26.6332 53.8044 25.2024 54.9126 24.1475C56.0207 23.0926 57.5237 22.5 59.0909 22.5V11.25C57.5237 11.25 56.0207 10.6574 54.9126 9.60247C53.8044 8.54758 53.1818 7.11684 53.1818 5.625H23.6364ZM0 11.25H5.90909V39.375H53.1818V45H0V11.25Z" fill="#5FA1C6"/>
</svg>
