<svg width="51" height="50" viewBox="0 0 51 50" fill="none" xmlns="http://www.w3.org/2000/svg">
<path d="M40.5 40C41.8261 40 43.0979 40.5268 44.0355 41.4645C44.9732 42.4021 45.5 43.6739 45.5 45C45.5 46.3261 44.9732 47.5979 44.0355 48.5355C43.0979 49.4732 41.8261 50 40.5 50C37.725 50 35.5 47.75 35.5 45C35.5 42.225 37.725 40 40.5 40ZM0.5 0H8.675L11.025 5H48C48.663 5 49.2989 5.26339 49.7678 5.73223C50.2366 6.20107 50.5 6.83696 50.5 7.5C50.5 7.925 50.375 8.35 50.2 8.75L41.25 24.925C40.4 26.45 38.75 27.5 36.875 27.5H18.25L16 31.575L15.925 31.875C15.925 32.0408 15.9908 32.1997 16.1081 32.3169C16.2253 32.4342 16.3842 32.5 16.55 32.5H45.5V37.5H15.5C12.725 37.5 10.5 35.25 10.5 32.5C10.5 31.625 10.725 30.8 11.1 30.1L14.5 23.975L5.5 5H0.5V0ZM15.5 40C16.8261 40 18.0979 40.5268 19.0355 41.4645C19.9732 42.4021 20.5 43.6739 20.5 45C20.5 46.3261 19.9732 47.5979 19.0355 48.5355C18.0979 49.4732 16.8261 50 15.5 50C12.725 50 10.5 47.75 10.5 45C10.5 42.225 12.725 40 15.5 40ZM38 22.5L44.95 10H13.35L19.25 22.5H38Z" fill="#5FA1C6"/>
</svg>
