<svg width="50" height="58" viewBox="0 0 64 58" fill="none" xmlns="http://www.w3.org/2000/svg">
<path d="M31.906 0C27.7161 0 23.5671 0.741485 19.6961 2.18212C15.8251 3.62276 12.3078 5.73433 9.34506 8.39627C3.36152 13.7723 0 21.0638 0 28.6667C0 36.2695 3.36152 43.561 9.34506 48.9371C12.3078 51.599 15.8251 53.7106 19.6961 55.1512C23.5671 56.5919 27.7161 57.3333 31.906 57.3333C40.368 57.3333 48.4834 54.3131 54.467 48.9371C60.4505 43.561 63.812 36.2695 63.812 28.6667C63.812 24.9021 62.9868 21.1744 61.3833 17.6964C59.7799 14.2184 57.4297 11.0582 54.467 8.39627C51.5042 5.73433 47.9869 3.62276 44.1159 2.18212C40.2449 0.741485 36.096 0 31.906 0ZM15.953 21.5C15.953 19.2067 18.1864 17.2 20.7389 17.2C23.2914 17.2 25.5248 19.2067 25.5248 21.5C25.5248 23.7933 23.2914 25.8 20.7389 25.8C18.1864 25.8 15.953 23.7933 15.953 21.5ZM31.906 43.6593C26.3225 43.6593 21.4089 41.5667 18.5374 38.4707L23.068 34.4C24.5038 36.464 27.9178 37.926 31.906 37.926C35.8943 37.926 39.3082 36.464 40.744 34.4L45.2746 38.4707C42.4031 41.5667 37.4896 43.6593 31.906 43.6593ZM43.0731 25.8C40.5206 25.8 38.2872 23.7933 38.2872 21.5C38.2872 19.2067 40.5206 17.2 43.0731 17.2C45.6256 17.2 47.859 19.2067 47.859 21.5C47.859 23.7933 45.6256 25.8 43.0731 25.8Z" fill="#5FA1C6"/>
</svg>
