<svg width="50" height="60" viewBox="0 0 62 60" fill="none" xmlns="http://www.w3.org/2000/svg">
<path d="M30.5825 54C37.0713 54 43.2943 51.4714 47.8826 46.9706C52.4709 42.4697 55.0485 36.3652 55.0485 30C55.0485 23.6348 52.4709 17.5303 47.8826 13.0294C43.2943 8.52856 37.0713 6 30.5825 6C24.0937 6 17.8707 8.52856 13.2824 13.0294C8.69417 17.5303 6.1165 23.6348 6.1165 30C6.1165 36.3652 8.69417 42.4697 13.2824 46.9706C17.8707 51.4714 24.0937 54 30.5825 54ZM30.5825 0C34.5987 0 38.5755 0.775973 42.2859 2.28361C45.9964 3.79126 49.3678 6.00104 52.2076 8.7868C55.0475 11.5726 57.3002 14.8797 58.8371 18.5195C60.374 22.1593 61.165 26.0603 61.165 30C61.165 37.9565 57.943 45.5871 52.2076 51.2132C46.4723 56.8393 38.6935 60 30.5825 60C13.6704 60 0 46.5 0 30C0 22.0435 3.22208 14.4129 8.95741 8.7868C14.6927 3.16071 22.4715 0 30.5825 0ZM32.1116 15V30.75L45.8738 38.76L43.5801 42.45L27.5243 33V15H32.1116Z" fill="#5FA1C6"/>
</svg>
