<svg width="25" height="26" viewBox="0 0 25 26" fill="none" xmlns="http://www.w3.org/2000/svg">
<path d="M7.25 0.786743H17.75C21.75 0.786743 25 4.03754 25 8.03852V18.5411C25 20.4644 24.2362 22.3089 22.8765 23.6689C21.5169 25.0288 19.6728 25.7929 17.75 25.7929H7.25C3.25 25.7929 0 22.5421 0 18.5411V8.03852C0 6.11523 0.763837 4.27071 2.12348 2.91074C3.48311 1.55077 5.32718 0.786743 7.25 0.786743ZM7 3.28735C5.80653 3.28735 4.66193 3.76158 3.81802 4.6057C2.97411 5.44982 2.5 6.59469 2.5 7.78845V18.7911C2.5 21.2793 4.5125 23.2922 7 23.2922H18C19.1935 23.2922 20.3381 22.818 21.182 21.9739C22.0259 21.1298 22.5 19.9849 22.5 18.7911V7.78845C22.5 5.30035 20.4875 3.28735 18 3.28735H7ZM19.0625 5.16281C19.4769 5.16281 19.8743 5.32747 20.1674 5.62057C20.4604 5.91367 20.625 6.31119 20.625 6.7257C20.625 7.1402 20.4604 7.53772 20.1674 7.83082C19.8743 8.12392 19.4769 8.28858 19.0625 8.28858C18.6481 8.28858 18.2507 8.12392 17.9576 7.83082C17.6646 7.53772 17.5 7.1402 17.5 6.7257C17.5 6.31119 17.6646 5.91367 17.9576 5.62057C18.2507 5.32747 18.6481 5.16281 19.0625 5.16281ZM12.5 7.03827C14.1576 7.03827 15.7473 7.69691 16.9194 8.8693C18.0915 10.0417 18.75 11.6318 18.75 13.2898C18.75 14.9478 18.0915 16.5379 16.9194 17.7103C15.7473 18.8827 14.1576 19.5413 12.5 19.5413C10.8424 19.5413 9.25268 18.8827 8.08058 17.7103C6.90848 16.5379 6.25 14.9478 6.25 13.2898C6.25 11.6318 6.90848 10.0417 8.08058 8.8693C9.25268 7.69691 10.8424 7.03827 12.5 7.03827ZM12.5 9.53888C11.5054 9.53888 10.5516 9.93407 9.84835 10.6375C9.14509 11.3409 8.75 12.295 8.75 13.2898C8.75 14.2846 9.14509 15.2387 9.84835 15.9421C10.5516 16.6455 11.5054 17.0407 12.5 17.0407C13.4946 17.0407 14.4484 16.6455 15.1517 15.9421C15.8549 15.2387 16.25 14.2846 16.25 13.2898C16.25 12.295 15.8549 11.3409 15.1517 10.6375C14.4484 9.93407 13.4946 9.53888 12.5 9.53888Z" fill="black"/>
</svg>
